<svg width="32" height="32" viewBox="0 0 32 32" fill="none" xmlns="http://www.w3.org/2000/svg">
<path fill-rule="evenodd" clip-rule="evenodd" d="M7.33325 28C7.33325 26.1591 8.82564 24.6667 10.6666 24.6667C12.5075 24.6667 13.9999 26.1591 13.9999 28C13.9999 29.841 12.5075 31.3333 10.6666 31.3333C8.82564 31.3333 7.33325 29.841 7.33325 28ZM10.6666 26C9.56202 26 8.66659 26.8954 8.66659 28C8.66659 29.1046 9.56202 30 10.6666 30C11.7712 30 12.6666 29.1046 12.6666 28C12.6666 26.8954 11.7712 26 10.6666 26Z" fill="white"/>
<path fill-rule="evenodd" clip-rule="evenodd" d="M23.3333 28C23.3333 26.1591 24.8256 24.6667 26.6666 24.6667C28.5075 24.6667 29.9999 26.1591 29.9999 28C29.9999 29.841 28.5075 31.3333 26.6666 31.3333C24.8256 31.3333 23.3333 29.841 23.3333 28ZM26.6666 26C25.562 26 24.6666 26.8954 24.6666 28C24.6666 29.1046 25.562 30 26.6666 30C27.7712 30 28.6666 29.1046 28.6666 28C28.6666 26.8954 27.7712 26 26.6666 26Z" fill="white"/>
<path fill-rule="evenodd" clip-rule="evenodd" d="M1.33341 0.666672C0.965225 0.666672 0.666748 0.965149 0.666748 1.33334C0.666748 1.70153 0.965225 2.00001 1.33341 2.00001H6.10743C7.11719 7.72197 8.13785 13.4191 8.99916 19.1611C9.24392 20.7929 10.6456 22 12.2956 22H25.813C27.4019 22 28.77 20.8785 29.0816 19.3204L31.0005 9.72557C31.2481 8.48799 30.3015 7.33334 29.0394 7.33334H9.54737C9.14342 7.33334 8.77071 7.45202 8.45923 7.65458L7.32327 1.21748C7.26705 0.89891 6.99024 0.666672 6.66675 0.666672H1.33341ZM8.88808 9.43223C8.82762 9.02916 9.13979 8.66667 9.54737 8.66667H29.0394C29.4601 8.66667 29.7756 9.05155 29.6931 9.46408L27.7741 19.0589C27.5872 19.9938 26.7663 20.6667 25.813 20.6667H12.2956C11.3056 20.6667 10.4646 19.9424 10.3177 18.9634L8.88808 9.43223Z" fill="white"/>
</svg>
