<svg width="16" height="16" viewBox="0 0 16 16" fill="none" xmlns="http://www.w3.org/2000/svg">
<path fill-rule="evenodd" clip-rule="evenodd" d="M2.3335 12.6667C2.3335 11.0099 3.67664 9.66675 5.3335 9.66675H10.6668C12.3237 9.66675 13.6668 11.0099 13.6668 12.6667V14.0001C13.6668 14.1842 13.5176 14.3334 13.3335 14.3334C13.1494 14.3334 13.0002 14.1842 13.0002 14.0001V12.6667C13.0002 11.3781 11.9555 10.3334 10.6668 10.3334H5.3335C4.04483 10.3334 3.00016 11.3781 3.00016 12.6667V14.0001C3.00016 14.1842 2.85092 14.3334 2.66683 14.3334C2.48273 14.3334 2.3335 14.1842 2.3335 14.0001V12.6667Z" fill="#414141"/>
<path fill-rule="evenodd" clip-rule="evenodd" d="M5 4.66675C5 3.00989 6.34315 1.66675 8 1.66675C9.65685 1.66675 11 3.00989 11 4.66675C11 6.3236 9.65685 7.66675 8 7.66675C6.34315 7.66675 5 6.3236 5 4.66675ZM8 2.33341C6.71134 2.33341 5.66667 3.37808 5.66667 4.66675C5.66667 5.95541 6.71134 7.00008 8 7.00008C9.28866 7.00008 10.3333 5.95541 10.3333 4.66675C10.3333 3.37808 9.28866 2.33341 8 2.33341Z" fill="#414141"/>
</svg>
