<svg width="27" height="27" viewBox="0 0 27 27" fill="none" xmlns="http://www.w3.org/2000/svg">
<path fill-rule="evenodd" clip-rule="evenodd" d="M0.0284202 3.90993C-0.261529 1.60257 1.71351 0 3.83466 0H8.32424C9.2304 0 10.0069 0.648045 10.169 1.53959L10.9269 5.70816C11.1533 6.95335 10.8294 8.23556 10.0388 9.22383L9.13455 10.3541C8.97341 10.5556 8.95867 10.8226 9.08315 11.0256C9.67011 11.9827 10.726 13.5996 11.6844 14.5581C12.6429 15.5165 14.2598 16.5723 15.2169 17.1593C15.4199 17.2838 15.6869 17.2691 15.8883 17.1079L17.0186 16.2037C18.0069 15.4131 19.2891 15.0891 20.5343 15.3155L24.7029 16.0735C25.5944 16.2356 26.2425 17.0121 26.2425 17.9182V22.1021C26.2425 24.379 24.4288 26.405 22.0116 26.0163C17.8708 25.3504 11.9519 23.221 7.03446 17.9253C2.25315 12.7762 0.481873 7.51843 0.0284202 3.90993ZM3.83466 1.25C2.25402 1.25 1.09707 2.38855 1.26867 3.75408C1.69154 7.11921 3.35828 12.1293 7.95045 17.0747C12.6373 22.1221 18.2786 24.1499 22.21 24.7821C23.7031 25.0222 24.9925 23.7856 24.9925 22.1021V17.9182C24.9925 17.6162 24.7764 17.3573 24.4793 17.3033L20.3107 16.5454C19.4213 16.3837 18.5054 16.615 17.7995 17.1798L16.6692 18.084C16.0719 18.5618 15.2323 18.6351 14.5634 18.2249C13.6094 17.6399 11.8752 16.5166 10.8005 15.4419C9.72585 14.3673 8.60261 12.633 8.01757 11.6791C7.60732 11.0101 7.68063 10.1706 8.15846 9.57326L9.0627 8.44296C9.62743 7.73705 9.85879 6.82119 9.69708 5.93177L8.93916 1.7632C8.88512 1.46601 8.62629 1.25 8.32424 1.25H3.83466Z" fill="#414141"/>
</svg>
